<svg width="472" height="387" viewBox="0 0 472 387" fill="none" xmlns="http://www.w3.org/2000/svg">
<rect width="472" height="387" fill="#024DDF"/>
<path d="M243.2 260C230.933 260 222.333 256.733 217.4 250.2C212.6 243.667 211.533 234.467 214.2 222.6L235 132.8L262.4 123.4L238.8 225.2C237.733 230.133 238.267 233.8 240.4 236.2C242.533 238.467 246.2 239.6 251.4 239.6C254.067 239.6 256.333 239.467 258.2 239.2C260.2 238.8 262 238.333 263.6 237.8L259 257.4C257.267 258.2 255.067 258.8 252.4 259.2C249.867 259.733 246.8 260 243.2 260ZM205.4 175.8L209.8 156H282.4L277.8 175.8H205.4Z" fill="white"/>
</svg>
