<svg width="472" height="628" viewBox="0 0 472 628" fill="none" xmlns="http://www.w3.org/2000/svg">
<rect width="472" height="628" fill="#024DDF"/>
<path d="M251.65 405C227.117 405 209.917 398.467 200.05 385.4C190.45 372.333 188.317 353.933 193.65 330.2L235.25 150.6L290.05 131.8L242.85 335.4C240.717 345.267 241.783 352.6 246.05 357.4C250.317 361.933 257.65 364.2 268.05 364.2C273.383 364.2 277.917 363.933 281.65 363.4C285.65 362.6 289.25 361.667 292.45 360.6L283.25 399.8C279.783 401.4 275.383 402.6 270.05 403.4C264.983 404.467 258.85 405 251.65 405ZM176.05 236.6L184.85 197H330.05L320.85 236.6H176.05Z" fill="white"/>
</svg>
