<svg width="472" height="628" viewBox="0 0 472 628" fill="none" xmlns="http://www.w3.org/2000/svg">
<g clip-path="url(#clip0_636_61)">
<rect width="472" height="628" fill="#3175FA"/>
<path d="M265.8 577C216.733 577 182.333 563.933 162.6 537.8C143.4 511.667 139.133 474.867 149.8 427.4L233 68.2L342.6 30.6L248.2 437.8C243.933 457.533 246.067 472.2 254.6 481.8C263.133 490.867 277.8 495.4 298.6 495.4C309.267 495.4 318.333 494.867 325.8 493.8C333.8 492.2 341 490.333 347.4 488.2L329 566.6C322.067 569.8 313.267 572.2 302.6 573.8C292.467 575.933 280.2 577 265.8 577ZM114.6 240.2L132.2 161H422.6L404.2 240.2H114.6Z" fill="white"/>
</g>
<defs>
<clipPath id="clip0_636_61">
<rect width="472" height="628" fill="white"/>
</clipPath>
</defs>
</svg>
