<svg width="472" height="628" viewBox="0 0 472 628" fill="none" xmlns="http://www.w3.org/2000/svg">
<g clip-path="url(#clip0_636_61)">
<rect width="472" height="628" fill="#3175FA"/>
<path d="M258.225 441C221.425 441 195.625 431.2 180.825 411.6C166.425 392 163.225 364.4 171.225 328.8L233.625 59.4L315.825 31.2L245.025 336.6C241.825 351.4 243.425 362.4 249.825 369.6C256.225 376.4 267.225 379.8 282.825 379.8C290.825 379.8 297.625 379.4 303.225 378.6C309.225 377.4 314.625 376 319.425 374.4L305.625 433.2C300.425 435.6 293.825 437.4 285.825 438.6C278.225 440.2 269.025 441 258.225 441ZM144.825 188.4L158.025 129H375.825L362.025 188.4H144.825Z" fill="white"/>
</g>
<defs>
<clipPath id="clip0_636_61">
<rect width="472" height="628" fill="white"/>
</clipPath>
</defs>
</svg>
