<svg width="234" height="234" viewBox="0 0 234 234" fill="none" xmlns="http://www.w3.org/2000/svg">
<path d="M23.3965 18.6178L23.5559 56.6229L5.57767 56.6983C4.16509 56.7043 3.01293 57.5642 3.01732 58.6094L3.07313 71.9111C3.07751 72.9563 4.23684 73.8066 5.64942 73.8006L23.6277 73.7252L23.7752 108.88L5.79691 108.955C4.38434 108.961 3.23218 109.821 3.23657 110.866L3.29238 124.168C3.29676 125.213 4.45609 126.064 5.86867 126.058L23.8469 125.982L23.9944 161.137L6.01616 161.212C4.60359 161.218 3.45143 162.078 3.45581 163.123L3.51162 176.425C3.51601 177.47 4.67534 178.321 6.08791 178.315L24.0662 178.239L24.2256 216.244C24.2432 220.449 28.8484 223.826 34.5308 223.802L219.45 223.026C225.132 223.003 229.709 219.587 229.691 215.382L228.862 17.7558C228.844 13.5515 224.239 10.174 218.557 10.1979L33.6378 10.9737C27.9554 10.9975 23.3788 14.4135 23.3965 18.6178ZM205.787 27.354L206.536 205.978L47.3006 206.646L47.181 178.142L65.1593 178.067C66.5718 178.061 67.724 177.201 67.7196 176.156L67.6638 162.854C67.6594 161.809 66.5001 160.959 65.0875 160.965L47.1093 161.04L46.9618 125.885L64.94 125.81C66.3526 125.804 67.5048 124.944 67.5004 123.899L67.4446 110.597C67.4402 109.552 66.2808 108.702 64.8683 108.707L46.89 108.783L46.7425 73.6282L64.7208 73.5528C66.1334 73.5469 67.2855 72.6869 67.2811 71.6418L67.2253 58.34C67.2209 57.2948 66.0616 56.4446 64.649 56.4505L46.6708 56.5259L46.5512 28.0221L205.787 27.354Z" fill="#2563eb"/>
<path d="M161.539 105.739C161.554 112.155 159.173 118.344 154.865 123.09C164.658 129.157 171.356 139.82 171.998 152.07C172.01 152.319 171.972 152.568 171.885 152.801C171.799 153.035 171.665 153.249 171.494 153.429C171.322 153.61 171.116 153.754 170.887 153.852C170.658 153.95 170.412 154 170.163 154H160.117C159.154 154 158.374 153.242 158.305 152.276C157.433 140.671 147.755 131.478 136.011 131.478C124.268 131.478 114.589 140.648 113.718 152.276C113.649 153.242 112.869 154 111.906 154H101.837C101.588 154 101.342 153.95 101.113 153.852C100.884 153.754 100.678 153.61 100.506 153.429C100.335 153.249 100.201 153.035 100.115 152.801C100.028 152.568 99.9899 152.319 100.002 152.07C100.309 146.214 102.025 140.52 105.005 135.474C107.984 130.427 112.138 126.179 117.112 123.09C112.961 118.494 110.438 112.427 110.438 105.739C110.438 91.5137 121.883 80 135.989 80C150.094 80 161.539 91.5137 161.539 105.739Z" fill="#2563eb"/>
<circle cx="136" cy="106" r="12" fill="white"/>
<rect x="100" y="152" width="72" height="12" fill="#2563eb"/>
</svg>
