<svg width="2791" height="2165" viewBox="0 0 2791 2165" fill="none" xmlns="http://www.w3.org/2000/svg">
<g clip-path="url(#clip0_549_123)">
<path d="M209.325 202.969H593.088C651.088 202.969 697.75 157.724 697.75 101.484C697.75 45.2451 651.088 0 593.088 0H139.55C62.3614 0 0 60.4678 0 135.312V575.078C0 631.317 46.662 676.562 104.663 676.562C162.663 676.562 209.325 631.317 209.325 575.078V202.969ZM2197.91 202.969H2581.68V575.078C2581.68 631.317 2628.34 676.562 2686.34 676.562C2744.34 676.562 2791 631.317 2791 575.078V135.312C2791 60.4678 2728.64 0 2651.45 0H2197.91C2139.91 0 2093.25 45.2451 2093.25 101.484C2093.25 157.724 2139.91 202.969 2197.91 202.969ZM209.325 1962.03V1589.92C209.325 1533.68 162.663 1488.44 104.663 1488.44C46.662 1488.44 0 1533.68 0 1589.92V2029.69C0 2104.53 62.3614 2165 139.55 2165H593.088C651.088 2165 697.75 2119.75 697.75 2063.52C697.75 2007.28 651.088 1962.03 593.088 1962.03H209.325ZM2197.91 1962.03C2139.91 1962.03 2093.25 2007.28 2093.25 2063.52C2093.25 2119.75 2139.91 2165 2197.91 2165H2651.45C2728.64 2165 2791 2104.53 2791 2029.69V1589.92C2791 1533.68 2744.34 1488.44 2686.34 1488.44C2628.34 1488.44 2581.68 1533.68 2581.68 1589.92V1962.03H2197.91Z" fill="#FFFEFF"/>
<path d="M625.111 619.281C594.846 619.281 570.083 642.442 570.083 670.75V1494.25C570.083 1522.56 594.846 1545.72 625.111 1545.72H2165.89C2196.15 1545.72 2220.92 1522.56 2220.92 1494.25V670.75C2220.92 642.442 2196.15 619.281 2165.89 619.281H625.111ZM405 670.75C405 557.197 503.706 464.875 625.111 464.875H2165.89C2287.29 464.875 2386 557.197 2386 670.75V1494.25C2386 1607.8 2287.29 1700.12 2165.89 1700.12H625.111C503.706 1700.12 405 1607.8 405 1494.25V670.75ZM1010.31 1288.38H1780.69C1810.96 1288.38 1835.72 1311.54 1835.72 1339.84V1391.31C1835.72 1419.62 1810.96 1442.78 1780.69 1442.78H1010.31C980.04 1442.78 955.278 1419.62 955.278 1391.31V1339.84C955.278 1311.54 980.04 1288.38 1010.31 1288.38ZM762.681 1056.77C762.681 1028.46 787.443 1005.3 817.708 1005.3H872.736C903.001 1005.3 927.764 1028.46 927.764 1056.77V1108.23C927.764 1136.54 903.001 1159.7 872.736 1159.7H817.708C787.443 1159.7 762.681 1136.54 762.681 1108.23V1056.77ZM817.708 747.953H872.736C903.001 747.953 927.764 771.114 927.764 799.422V850.891C927.764 879.198 903.001 902.359 872.736 902.359H817.708C787.443 902.359 762.681 879.198 762.681 850.891V799.422C762.681 771.114 787.443 747.953 817.708 747.953ZM1037.82 1056.77C1037.82 1028.46 1062.58 1005.3 1092.85 1005.3H1147.88C1178.14 1005.3 1202.9 1028.46 1202.9 1056.77V1108.23C1202.9 1136.54 1178.14 1159.7 1147.88 1159.7H1092.85C1062.58 1159.7 1037.82 1136.54 1037.82 1108.23V1056.77ZM1092.85 747.953H1147.88C1178.14 747.953 1202.9 771.114 1202.9 799.422V850.891C1202.9 879.198 1178.14 902.359 1147.88 902.359H1092.85C1062.58 902.359 1037.82 879.198 1037.82 850.891V799.422C1037.82 771.114 1062.58 747.953 1092.85 747.953ZM1312.96 1056.77C1312.96 1028.46 1337.72 1005.3 1367.99 1005.3H1423.01C1453.28 1005.3 1478.04 1028.46 1478.04 1056.77V1108.23C1478.04 1136.54 1453.28 1159.7 1423.01 1159.7H1367.99C1337.72 1159.7 1312.96 1136.54 1312.96 1108.23V1056.77ZM1367.99 747.953H1423.01C1453.28 747.953 1478.04 771.114 1478.04 799.422V850.891C1478.04 879.198 1453.28 902.359 1423.01 902.359H1367.99C1337.72 902.359 1312.96 879.198 1312.96 850.891V799.422C1312.96 771.114 1337.72 747.953 1367.99 747.953ZM1588.1 1056.77C1588.1 1028.46 1612.86 1005.3 1643.12 1005.3H1698.15C1728.42 1005.3 1753.18 1028.46 1753.18 1056.77V1108.23C1753.18 1136.54 1728.42 1159.7 1698.15 1159.7H1643.12C1612.86 1159.7 1588.1 1136.54 1588.1 1108.23V1056.77ZM1643.12 747.953H1698.15C1728.42 747.953 1753.18 771.114 1753.18 799.422V850.891C1753.18 879.198 1728.42 902.359 1698.15 902.359H1643.12C1612.86 902.359 1588.1 879.198 1588.1 850.891V799.422C1588.1 771.114 1612.86 747.953 1643.12 747.953ZM1863.24 1056.77C1863.24 1028.46 1888 1005.3 1918.26 1005.3H1973.29C2003.56 1005.3 2028.32 1028.46 2028.32 1056.77V1108.23C2028.32 1136.54 2003.56 1159.7 1973.29 1159.7H1918.26C1888 1159.7 1863.24 1136.54 1863.24 1108.23V1056.77ZM1918.26 747.953H1973.29C2003.56 747.953 2028.32 771.114 2028.32 799.422V850.891C2028.32 879.198 2003.56 902.359 1973.29 902.359H1918.26C1888 902.359 1863.24 879.198 1863.24 850.891V799.422C1863.24 771.114 1888 747.953 1918.26 747.953Z" fill="#FFFEFF"/>
</g>
<defs>
<clipPath id="clip0_549_123">
<rect width="2791" height="2165" fill="white"/>
</clipPath>
</defs>
</svg>
